<?xml version="1.0" encoding="utf-8"?>
<!-- Generator: Adobe Illustrator 27.5.0, SVG Export Plug-In . SVG Version: 6.00 Build 0)  -->
<svg version="1.1" xmlns="http://www.w3.org/2000/svg" xmlns:xlink="http://www.w3.org/1999/xlink" x="0px" y="0px"
	 viewBox="0 0 500 500" style="enable-background:new 0 0 500 500;" xml:space="preserve">
<g id="BACKGROUND">
	
		<linearGradient id="XMLID_00000181790665485176203250000003517176107743067825_" gradientUnits="userSpaceOnUse" x1="250" y1="500" x2="250" y2="-9.094947e-13">
		<stop  offset="0.0054" style="stop-color:#D9D9D9"/>
		<stop  offset="0.2665" style="stop-color:#E7E7E7"/>
		<stop  offset="0.6906" style="stop-color:#F9F9F9"/>
		<stop  offset="1" style="stop-color:#FFFFFF"/>
	</linearGradient>
	<rect id="XMLID_18_" style="fill:url(#XMLID_00000181790665485176203250000003517176107743067825_);" width="500" height="500"/>
</g>
<g id="OBJECTS">
	<g id="XMLID_1_">
		<g id="XMLID_2_">
			<g id="XMLID_14_">
				
					<text transform="matrix(1 0 0 1 175.3741 322.44)" style="fill:#3D3D3D; font-family:'AdventPro-Medium'; font-size:31.1891px;">COMPUTER</text>
			</g>
			<g id="XMLID_17_">
				
					<text transform="matrix(1 0 0 1 214.6797 391.775)" style="fill:#3D3D3D; font-family:'AdventPro-Medium'; font-size:19.7311px;">SLOGAN</text>
			</g>
			<g id="XMLID_16_">
				<text transform="matrix(1 0 0 1 163.1734 370.437)" style="fill:#3D3D3D; font-family:'AdventPro-Bold'; font-size:58.778px;">REPAIR</text>
			</g>
		</g>
		<g id="XMLID_42_">
			<path id="XMLID_75_" style="fill:#3D3D3D;" d="M227.793,278.038l1.545-18.075c0.033-0.391-0.099-0.779-0.364-1.068
				c-0.266-0.289-0.64-0.454-1.033-0.454h-83.28c-1.762,0-3.196-1.433-3.196-3.195V112.217c0-1.762,1.434-3.196,3.196-3.196h44.647
				c0.775,0,1.402-0.628,1.402-1.402c0-0.775-0.628-1.402-1.402-1.402H144.66c-3.309,0-6.001,2.692-6.001,6v143.028
				c0,3.309,2.692,6.001,6.001,6.001h81.752l-1.39,16.264c-1.606,0.352-2.81,1.778-2.81,3.489c0,1.975,1.601,3.576,3.576,3.576
				c1.975,0,3.576-1.601,3.576-3.576C229.365,279.767,228.741,278.681,227.793,278.038z"/>
			<g id="XMLID_5_">
				<path id="XMLID_7_" style="fill:#3D3D3D;" d="M355.34,106.078H206.104c-0.546-1.278-1.813-2.174-3.29-2.174
					c-1.975,0-3.576,1.601-3.576,3.576c0,1.975,1.601,3.576,3.576,3.576c1.477,0,2.744-0.896,3.289-2.174h26.441H355.34
					c1.762,0,3.195,1.434,3.195,3.196v143.891c0,1.762-1.433,3.195-3.195,3.195h-83.641c-0.389,0-0.761,0.162-1.026,0.447
					c-0.265,0.285-0.4,0.666-0.373,1.054l1.446,20.432c0.052,0.735,0.663,1.304,1.399,1.304h10.893v4.974h-47.309
					c-0.774,0-1.402,0.628-1.402,1.403s0.628,1.403,1.402,1.403h48.712c0.775,0,1.403-0.628,1.403-1.403v-7.78
					c0-0.775-0.628-1.403-1.403-1.403h-10.988l-1.247-17.626h82.135c3.309,0,6.001-2.692,6.001-6.001V112.078
					C361.34,108.769,358.648,106.078,355.34,106.078z"/>
				<path id="XMLID_10_" style="fill:#3D3D3D;" d="M183.898,136.105c-3.356,0-6.076,2.72-6.076,6.076
					c0,1.166,0.334,2.252,0.904,3.177l-4.017,4.017c-0.265,0.265-0.413,0.624-0.413,0.998v13.573l-23.594,23.595v-68.839
					l159.691,0.046c0.712,2.558,3.053,4.437,5.838,4.437c3.35,0,6.066-2.716,6.066-6.066s-2.716-6.066-6.066-6.066
					c-2.931,0-5.373,2.08-5.939,4.844H149.299c-0.774,0-1.402,0.628-1.402,1.402v73.593c0,0.775,0.628,1.402,1.402,1.402
					c0.316,0,0.604-0.108,0.838-0.284c0.112-0.062,0.22-0.135,0.315-0.23l26.252-26.253c0.265-0.264,0.414-0.623,0.414-0.998
					v-13.573l3.604-3.604c0.925,0.57,2.011,0.904,3.177,0.904c3.356,0,6.076-2.72,6.076-6.076
					C189.975,138.826,187.254,136.105,183.898,136.105z"/>
			</g>
			<path id="XMLID_6_" style="fill:#3D3D3D;" d="M350.807,115.717h-16.876c-0.775,0-1.403,0.628-1.403,1.402
				c0,0.775,0.628,1.402,1.403,1.402h15.473v110.19H239.147l11.504-11.504h26.247c0.374,0,0.733-0.149,0.998-0.413l8.85-8.85
				c0.925,0.57,2.011,0.904,3.177,0.904c3.356,0,6.076-2.72,6.076-6.076c0-3.356-2.72-6.076-6.076-6.076
				c-3.356,0-6.076,2.72-6.076,6.076c0,1.166,0.334,2.251,0.904,3.177l-8.437,8.437h-26.247c-0.374,0-0.733,0.149-0.998,0.413
				l-13.913,13.913h-18.498l30.587-30.588h18.083c0.374,0,0.733-0.149,0.998-0.413l15.229-15.228
				c0.409,0.163,0.853,0.259,1.32,0.259c1.974,0,3.575-1.601,3.575-3.575c0-1.974-1.6-3.575-3.575-3.575s-3.575,1.6-3.575,3.575
				c0,0.467,0.096,0.911,0.259,1.32l-14.815,14.815h-16.671v-9.635l31.48-31.48c0.925,0.569,2.011,0.904,3.177,0.904
				c3.356,0,6.076-2.721,6.076-6.076c0-3.356-2.721-6.077-6.076-6.077c-3.356,0-6.076,2.721-6.076,6.077
				c0,1.166,0.334,2.252,0.904,3.177l-31.893,31.893c-0.265,0.264-0.413,0.623-0.413,0.998v11.046l-32.583,32.583h-31.569
				l16.859-16.859h20.505c0.374,0,0.733-0.149,0.998-0.413l11.5-11.5c0.409,0.163,0.853,0.259,1.321,0.259
				c1.974,0,3.575-1.601,3.575-3.575c0-1.974-1.601-3.575-3.575-3.575s-3.575,1.601-3.575,3.575c0,0.467,0.096,0.911,0.259,1.32
				l-11.087,11.086h-10.948l33.568-33.568c0.265-0.264,0.413-0.624,0.413-0.998v-10.677l8.54-8.541
				c0.409,0.163,0.853,0.259,1.32,0.259c1.975,0,3.575-1.6,3.575-3.575c0-1.974-1.6-3.575-3.575-3.575
				c-1.974,0-3.575,1.601-3.575,3.575c0,0.468,0.096,0.911,0.259,1.321l-8.954,8.954c-0.265,0.264-0.413,0.623-0.413,0.998v10.677
				l-35.149,35.15h-5.566c-0.374,0-0.733,0.149-0.998,0.413l-19.268,19.268h-11.253l36.686-36.686
				c0.925,0.57,2.011,0.904,3.177,0.904c3.356,0,6.076-2.721,6.076-6.076c0-3.356-2.721-6.076-6.076-6.076s-6.076,2.72-6.076,6.076
				c0,1.166,0.334,2.252,0.904,3.177l-38.682,38.682h-9.166l33.718-33.718c0.265-0.264,0.413-0.624,0.413-0.998v-18.968h14.533
				c0.374,0,0.733-0.149,0.998-0.414l10.581-10.58c0.925,0.57,2.011,0.904,3.177,0.904c3.356,0,6.076-2.72,6.076-6.076
				c0-3.356-2.721-6.076-6.076-6.076s-6.077,2.721-6.077,6.076c0,1.166,0.335,2.252,0.904,3.177l-10.168,10.167h-13.948v-4.75
				l25.217-25.217c0.409,0.163,0.853,0.259,1.321,0.259c1.974,0,3.575-1.601,3.575-3.575c0-1.974-1.6-3.575-3.575-3.575
				c-1.974,0-3.575,1.601-3.575,3.575c0,0.467,0.096,0.911,0.259,1.32l-25.63,25.63c-0.265,0.264-0.414,0.623-0.414,0.998v26.54
				l-33.304,33.305v-14.749c2.718-0.6,4.753-3.02,4.753-5.919c0-0.348-0.036-0.687-0.092-1.019l13.056-13.056
				c0.409,0.163,0.853,0.259,1.321,0.259c1.974,0,3.575-1.601,3.575-3.575c0-1.974-1.601-3.575-3.575-3.575
				c-1.974,0-3.575,1.6-3.575,3.575c0,0.467,0.096,0.911,0.259,1.32l-12.293,12.293c-1.111-1.393-2.821-2.289-4.742-2.289
				c-3.35,0-6.066,2.716-6.066,6.066c0,2.834,1.946,5.207,4.574,5.873v18.193c0,0.775,0.628,1.403,1.402,1.403h201.508
				c0.775,0,1.403-0.628,1.403-1.403V117.119C352.21,116.344,351.582,115.717,350.807,115.717z"/>
		</g>
	</g>
</g>
</svg>
